<svg width="32" height="32" viewBox="0 0 32 32" fill="none" xmlns="http://www.w3.org/2000/svg">
<path d="M24.879 2.87892C25.1545 2.5876 25.4857 2.35448 25.8529 2.19334C26.2201 2.03219 26.6158 1.9463 27.0168 1.94072C27.4177 1.93514 27.8157 2.01 28.1872 2.16088C28.5588 2.31175 28.8963 2.53557 29.1798 2.81911C29.4633 3.10265 29.6872 3.44016 29.838 3.81168C29.9889 4.1832 30.0638 4.5812 30.0582 4.98215C30.0526 5.38309 29.9667 5.77886 29.8056 6.14604C29.6444 6.51322 29.4113 6.84437 29.12 7.11992L20.33 15.9099C20.3184 15.9215 20.3091 15.9353 20.3028 15.9505C20.2965 15.9657 20.2933 15.982 20.2933 15.9984C20.2933 16.0149 20.2965 16.0311 20.3028 16.0463C20.3091 16.0615 20.3184 16.0753 20.33 16.0869L29.12 24.8769C29.4023 25.1546 29.6269 25.4855 29.7807 25.8504C29.9345 26.2153 30.0146 26.6071 30.0162 27.0031C30.0179 27.3991 29.9411 27.7916 29.7904 28.1578C29.6396 28.524 29.4178 28.8567 29.1378 29.1368C28.8578 29.4168 28.5252 29.6387 28.159 29.7895C27.7928 29.9404 27.4004 30.0172 27.0044 30.0157C26.6084 30.0141 26.2166 29.9341 25.8516 29.7804C25.4867 29.6267 25.1558 29.4022 24.878 29.1199L16.088 20.3299C16.0764 20.3183 16.0626 20.309 16.0474 20.3027C16.0322 20.2964 16.0159 20.2932 15.9995 20.2932C15.9831 20.2932 15.9668 20.2964 15.9516 20.3027C15.9364 20.309 15.9226 20.3183 15.911 20.3299L7.12099 29.1199C6.84329 29.4023 6.51243 29.6268 6.1475 29.7806C5.78258 29.9345 5.39081 30.0145 4.99479 30.0162C4.59877 30.0178 4.20635 29.9411 3.84014 29.7903C3.47394 29.6395 3.14122 29.4178 2.86115 29.1378C2.58109 28.8578 2.35924 28.5251 2.20839 28.1589C2.05754 27.7928 1.98068 27.4004 1.98225 27.0043C1.98381 26.6083 2.06377 26.2165 2.21751 25.8516C2.37125 25.4866 2.59573 25.1557 2.87799 24.8779L11.668 16.0879C11.6796 16.0763 11.6889 16.0625 11.6952 16.0473C11.7015 16.0321 11.7047 16.0159 11.7047 15.9994C11.7047 15.983 11.7015 15.9667 11.6952 15.9515C11.6889 15.9363 11.6796 15.9225 11.668 15.9109L2.87799 7.12092C2.32289 6.55683 2.01317 5.79624 2.01629 5.00483C2.01942 4.21342 2.33515 3.4553 2.8947 2.89562C3.45425 2.33594 4.21229 2.02003 5.0037 2.01672C5.79511 2.0134 6.55577 2.32294 7.11999 2.87792L15.91 11.6679C15.9216 11.6796 15.9354 11.6888 15.9506 11.6951C15.9658 11.7014 15.9821 11.7046 15.9985 11.7046C16.0149 11.7046 16.0312 11.7014 16.0464 11.6951C16.0616 11.6888 16.0754 11.6796 16.087 11.6679L24.879 2.87892Z" fill="black"/>
</svg>
